<svg id="Layer_1" data-name="Layer 1" xmlns="http://www.w3.org/2000/svg" viewBox="0 0 1680 1024"><defs><style>.cls-1{fill:#f8e14a;}</style></defs><title>Artboard 1</title><path class="cls-1" d="M780.73,395.08c9.78-4.47,20.48-12.1,19.86-22.83a21.51,21.51,0,0,0-3.8-10.2c-11-17-32.57-22.74-50.36-32.35-9.75-5.26-19.12-12.12-30.1-13.54-17.89-2.33-33.9,10.12-50.85,16.3-6.55,2.39-14,4.25-18,10-5.58,8-1.27,19.56,6.16,25.83s17.15,8.95,26,13a129.27,129.27,0,0,1,26.65,16.93c4.92,3.94,9,7.94,15.28,9.52C740.32,412.4,764,402.73,780.73,395.08Z"/><path class="cls-1" d="M1004.71,264a52.89,52.89,0,0,0-79.32,33.86c-4.46,20.58,3.56,42.32-.83,62.92-2.52,11.83-9,22.39-15.29,32.69S896.5,414.31,894,426.14s-.4,25.37,8.39,33.67c6.58,6.23,16,8.7,25.06,8.72,17.62.06,34.16-8.13,49.26-17.21s29.82-19.38,46.72-24.35c12.65-3.72,26.32-4.38,38.07-10.35,15.26-7.76,25.25-24,27.82-40.88,3.65-24.07-6.29-61.45-30.58-72.25-9.33-4.15-17.81-3.77-25.6-11.43C1023.47,282.57,1016.53,271.23,1004.71,264Z"/><path class="cls-1" d="M884.2,397.34c-1.45-5.94-4.82-11.24-8.62-16-5.35-6.75-12.07-13-20.44-15-11.21-2.71-22.95,2.76-31.62,10.36S808.24,394,800.06,402.1c-9.7,9.65-21.47,16.95-33.56,23.35-8.76,4.64-19,10.58-19.66,20.46-.47,6.84,4.18,13.14,9.83,17,12,8.28,27.88,8.1,42.32,6,20.13-3,45.59-8.28,61.86-21.49C873.61,437,888.19,413.8,884.2,397.34Z"/><path class="cls-1" d="M867.87,491.26c-4.77,3.59-7.32,9.62-7.64,15.58-.86,16.24,12.5,29.13,21.25,42.84,11.1,17.41,15.3,38.32,17.25,58.88.86,9.08,1.41,18.5,5.65,26.58s13.44,14.4,22.26,12.1c4.39-1.14,8-4.18,11.3-7.3,17.3-16.4,30-37.37,48.14-52.78,12.3-10.43,26.77-18,39.25-28.2s23.33-24.15,24.16-40.25a22.72,22.72,0,0,0-2.25-12c-3.64-6.7-11.48-9.89-18.92-11.55-29.11-6.47-58.52,2.67-87.54,5-12.31,1-26.3,1.78-37.73-3.56C892.22,491.48,879.59,482.42,867.87,491.26Z"/><path class="cls-1" d="M623.08,419.72c17.69-16,44.69-20.75,66.78-11.83s38.2,31.12,39.84,54.89c.31,4.53.1,9.26-1.88,13.35-3.52,7.27-11.8,11-19.74,12.47-12.54,2.38-25.44.75-38.2.87s-26.33,2.39-35.78,11c-4.3,3.91-7.5,8.92-11.93,12.68s-10.89,6.12-16.06,3.47c-15.86-8.15-11.43-34.61-8.49-47.9C601.63,450.52,609,432.44,623.08,419.72Z"/><path class="cls-1" d="M721.32,513.06c-12.89-1.12-25.62-4.15-38.56-4.24-20.58-.16-40.92,7.28-57.45,19.54s-29.38,29.15-38.14,47.77c-2.91,6.17-5.42,12.69-5.75,19.51s1.8,14,6.92,18.54c7.26,6.4,18.17,5.85,27.74,4.38,24.77-3.82,48.88-11.39,73.75-14.49,40-5,81.6,1.56,120-10.58,11.47-3.63,22.63-9,31.13-17.55s14-20.47,12.93-32.44c-1.6-17.19-16.51-30.79-32.92-36.15-14.61-4.77-36.11-6.78-50.81-1.77C753.72,511.17,739.1,514.6,721.32,513.06Z"/><path class="cls-1" d="M857.09,331.82c7.62,1.81,15.93,1.67,23-1.74s12.57-10.46,12.9-18.28a12,12,0,0,0-2-7.61c-2.12-2.88-5.78-4.2-9.32-4.79-10.1-1.71-31-.3-38.25,8.71C834.92,318.64,847.06,329.44,857.09,331.82Z"/><path class="cls-1" d="M604.29,420.05c10.69-3.73,21.06-10,27.85-18.73s9.47-20.12,5.13-28.49a12.48,12.48,0,0,0-7.11-6.44c-4.42-1.45-9.82-.11-14.63,1.87-13.75,5.66-39.15,22.49-42.84,37.22C568.37,422.68,590.21,425,604.29,420.05Z"/><path class="cls-1" d="M1098.32,574.87a58.52,58.52,0,0,0,12.59,13.45,29.4,29.4,0,0,0,8.21,4.39c2.41.79,5.18,2,7.61.61a6.13,6.13,0,0,0,2.61-3.84c2.05-7.65-.79-15.59-3.47-22.7-2.92-7.74-6.87-15-9.5-22.89-2.15-6.42-3.43-13.1-5.62-19.51s-5.42-12.69-10.66-17-12.8-6.21-19-3.45C1058.91,513.88,1090.1,563.27,1098.32,574.87Z"/><path class="cls-1" d="M665.66,628.9c-12,.58-23.52,1.46-33.92,8.78-8.13,5.72-13.84,14.22-18.7,22.89a197.9,197.9,0,0,0-24.95,104c.37,9.23,1.67,19.11,7.87,25.95,5.11,5.64,12.94,8.31,20.55,8.35s15.06-2.29,22-5.36c26.08-11.51,46.32-33.09,70.9-47.51,23.8-14,51-20.86,76.76-30.65s51.59-23.61,66.56-46.79c2.78-4.3,5.21-9.17,4.86-14.28-1.13-16.37-22.18-21.49-35.22-23.24-33.22-4.46-66.82-5.25-100.29-4.49-16.79.38-33.56,1.16-50.33,2.05Z"/><path class="cls-1" d="M1028.71,593c-10.62-.21-22.29,2.82-28.28,11.6-6.76,9.91-4,23.1-3.7,35.08.59,20.59-7.66,42.11-24.44,54-12.88,9.16-29.27,12-42.83,20.06a62.7,62.7,0,0,0-26.8,33c-2.51,7.24-3.61,15.38-.69,22.46,4.09,9.92,14.87,15.25,25.15,18.31,30.84,9.18,64.71,5.45,94.39-7s55.39-33.13,76.79-57.16c7.24-8.13,14.16-16.89,17.69-27.19s3.18-22.48-3.31-31.21c-11-14.75-34.66-15-45.46-29.89-6.3-8.65-4.16-19.14-8.72-27.94C1053.23,597,1039.19,593.18,1028.71,593Z"/><path class="cls-1" d="M1072.52,433.27a32.55,32.55,0,0,0-14.14,24.81,20.83,20.83,0,0,0,1.35,9.21,15.15,15.15,0,0,0,26.69,2.27c1.83-2.86,2.68-6.3,4.75-9,2.54-3.32,6.59-5.1,10.55-6.46s8.1-2.49,11.48-5,5.84-6.76,4.77-10.81c-2-7.53-13.81-8.24-20.15-9.55C1089.09,427,1080,428.23,1072.52,433.27Z"/><path class="cls-1" d="M877.22,690.58c2.85,4.78,8.5,7.18,14,8.07a18.25,18.25,0,0,0,8.75-.36,20.17,20.17,0,0,0,7.34-5.07c4.17-4.08,8.05-9.48,7.11-15.24-.55-3.36-2.71-6.26-5.16-8.64-5.86-5.68-18.47-12.92-26.47-7.51C875.28,666.91,872.83,683.19,877.22,690.58Z"/><path class="cls-1" d="M698.06,809.6c6.09-.63,12.37-3,16.05-8.12,2-2.75,2.23-5.73,3.39-8.85a22,22,0,0,1,5.47-8.58c5.87-5.45,14.95-6.25,22.6-3.9,6,1.85,11.33,5.36,16.22,9.22,3.93,3.1,10,8.86,6.55,14.39-1.68,2.66-5.1,3.59-8.24,3.92-8.33.87-17-1-25.05,1.22-9.75,2.63-17.12,10.65-22.56,19.15s-9.58,17.89-16,25.73S680.78,868,670.7,867.21c-18.17-1.35-26.47-23.69-18.77-38.49a37.39,37.39,0,0,1,16.16-15.91,34.72,34.72,0,0,1,11.21-3.47c4.53-.58,9.09.23,13.64.41A36.46,36.46,0,0,0,698.06,809.6Z"/><path class="cls-1" d="M752.41,847.24c11.85,2.12,22.28,9,31.74,16.45,20.43,16.06,39.34,36.09,64.5,42.56,12.73,3.27,27.55,3.41,36.5,13,6.76,7.25,8.08,18,8.23,27.86.12,8.11-.35,16.43-3.49,23.91-3.57,8.52-10.32,15.31-17.58,21-9.41,7.41-20.1,13.47-31.78,16.13s-24.44,1.68-34.89-4.16c-16.08-9-24.33-27.54-38.72-39-13.83-11-32.33-14.63-50-14.09s-35,4.82-52.38,8c-12.68,2.28-25.88,3.94-38.29.51s-23.89-13.13-25.75-25.87C598.07,917,612.7,902,628.71,897s33.2-2.76,50-2.48c8.25.14,20.3-.56,24.2-9.5,3.11-7.13,1.33-13.2,6.78-20.29C719.44,852,736.36,844.37,752.41,847.24Z"/><path class="cls-1" d="M904.26,818.09a19.43,19.43,0,0,1,9.75,1.14c5.46,2.42,8.45,8.19,12.12,12.91,7.73,10,20.89,16.31,33.21,13.57,8.28-1.84,15.17-7.31,22.36-11.79,14.77-9.21,32.49-14.67,49.67-11.92,18.28,2.93,33.94,14.68,47,27.78,21.27,21.29,38.21,47.9,43.49,77.53,1.67,9.38,2,19.73-3.23,27.7-7.71,11.84-24.26,13.88-38.28,12.12s-27.72-6.13-41.12-10.84c-26.09-9.17-55.72-16.82-76.09-36.64-22.26-21.66-37.6-47.55-65.91-62.46-4.83-2.54-9.87-4.85-14-8.42C865.68,833.61,889.09,819.58,904.26,818.09Z"/><path class="cls-1" d="M1073.58,800.25c-1.65,13,3.51,26.89,13.81,35,5.24,4.15,11.95,6.82,18.59,6s13-5.56,14.4-12.09c1.87-8.57-4.5-16.49-7.22-24.83-3.19-9.74-1.45-20.83-6-30C1096,751.8,1075,789.07,1073.58,800.25Z"/><path class="cls-1" d="M592.19,903c13.09.92,26.66-5,34.22-15.72,3.85-5.47,6.15-12.31,5-18.9s-6.26-12.65-12.86-13.72c-8.66-1.39-16.22,5.41-24.39,8.59-9.55,3.72-20.72,2.59-29.64,7.63C542.58,883.26,581,902.17,592.19,903Z"/><path class="cls-1" d="M609.76,1013c6.19,6.62,14.22,11.22,22.44,15,10,4.64,20.74,8.32,31.74,8,7.28-.21,14.38-2.17,21.39-4.11l36.6-10.13c8-2.2,16.77-5.06,20.63-12.36a6.79,6.79,0,0,0,.89-4.72,7,7,0,0,0-2.23-3.26c-6.5-6-16.22-6.54-25-6-14.49.92-28.78,4-43.27,4.85s-29.71-.81-42-8.53c-7.69-4.84-19.37-14.32-28-5C595.9,994.37,604.13,1007,609.76,1013Z"/><path class="cls-1" d="M941,988.85c13.8,1.09,26.92,6.24,39.73,11.49s25.76,10.7,39.5,12.44c15.26,1.93,31.27-.75,45.78,4.35,6.2,2.18,12.09,5.93,15.52,11.54s3.93,13.26.11,18.61c-3.91,5.51-11.12,7.42-17.79,8.49-15.89,2.55-32.09,2.48-48.13,3.83-31.25,2.65-62,10.73-93.38,11-12.28.1-26.49-2.13-32.78-12.68-7-11.79-1.68-33.21,4.77-44.7C904.22,995.61,921,987.27,941,988.85Z"/><path class="cls-1" d="M1702-22.15c13.8,1.09,26.92,6.24,39.73,11.49s25.76,10.7,39.5,12.44C1796.49,3.71,1812.5,1,1827,6.13c6.2,2.18,12.09,5.93,15.52,11.54s3.93,13.26.11,18.61c-3.91,5.51-11.12,7.42-17.79,8.49-15.89,2.55-32.09,2.48-48.13,3.83-31.25,2.65-62,10.73-93.38,11-12.28.1-26.49-2.13-32.78-12.68-7-11.79-1.68-33.21,4.77-44.7C1665.22-15.39,1682-23.73,1702-22.15Z"/><path class="cls-1" d="M792.08,759c-5.91,9.07-7.51,20.45-6.28,31.2s5.11,21,9.46,30.94c4.51,10.26,10.94,21.41,21.89,23.8,7.74,1.68,15.77-1.64,22.19-6.29s11.79-10.61,18.17-15.32c5.15-3.8,11-6.86,15-11.92a22,22,0,0,0,4.41-15.63c-1-9.6-8.16-17.27-12.34-26-6.48-13.49-11.08-33.9-29.75-34.73C820,734.45,799.87,747.08,792.08,759Z"/><path class="cls-1" d="M640.66-93.1c-12,.58-23.52,1.46-33.92,8.78C598.61-78.6,592.9-70.1,588-61.43a197.9,197.9,0,0,0-25,104c.37,9.23,1.67,19.11,7.87,25.95,5.11,5.64,12.94,8.31,20.55,8.35s15.06-2.29,22-5.36C639.61,60,659.85,38.42,684.43,24c23.8-14,51-20.86,76.76-30.65s51.59-23.61,66.56-46.79c2.78-4.3,5.21-9.17,4.86-14.28C831.48-84.09,810.43-89.21,797.39-91c-33.22-4.46-66.82-5.25-100.29-4.49-16.79.38-33.56,1.16-50.33,2Z"/><path class="cls-1" d="M1003.71-129c-10.62-.21-22.29,2.82-28.28,11.6-6.76,9.91-4,23.1-3.7,35.08.59,20.59-7.66,42.11-24.44,54-12.88,9.16-29.27,12-42.83,20.06a62.7,62.7,0,0,0-26.8,33C875.15,32,874.05,40.1,877,47.18c4.09,9.92,14.87,15.25,25.15,18.31,30.84,9.18,64.71,5.45,94.39-7s55.39-33.13,76.79-57.16c7.24-8.13,14.16-16.89,17.69-27.19s3.18-22.48-3.31-31.21c-11-14.75-34.66-15-45.46-29.89-6.3-8.65-4.16-19.14-8.72-27.94C1028.23-125,1014.19-128.82,1003.71-129Z"/><path class="cls-1" d="M673.06,87.6c6.09-.63,12.37-3,16.05-8.12,2-2.75,2.23-5.73,3.39-8.85a22,22,0,0,1,5.5-8.58c5.87-5.45,15-6.25,22.6-3.9,6,1.85,11.33,5.36,16.22,9.22,3.93,3.1,10,8.86,6.55,14.39-1.68,2.66-5.1,3.59-8.24,3.92-8.33.87-17-1-25,1.22-9.75,2.63-17.12,10.65-22.56,19.15s-9.58,17.89-16,25.73S655.78,146,645.7,145.21c-18.17-1.35-26.47-23.69-18.77-38.49a37.39,37.39,0,0,1,16.16-15.91,34.72,34.72,0,0,1,11.21-3.47c4.53-.58,9.09.23,13.64.41A36.46,36.46,0,0,0,673.06,87.6Z"/><path class="cls-1" d="M727.41,125.24c11.85,2.12,22.28,9,31.74,16.45,20.43,16.06,39.34,36.09,64.5,42.56,12.73,3.27,27.55,3.41,36.5,13,6.76,7.25,8.08,17.95,8.23,27.86.12,8.11-.35,16.43-3.49,23.91-3.57,8.52-10.32,15.31-17.58,21-9.41,7.41-20.1,13.47-31.78,16.13s-24.44,1.68-34.89-4.16c-16.08-9-24.33-27.54-38.72-39-13.83-11-32.33-14.63-50-14.09s-35,4.82-52.38,8c-12.68,2.28-25.88,3.94-38.29.51s-23.89-13.13-25.75-25.87C573.07,195,587.7,180,603.71,175s33.2-2.76,50-2.48c8.25.14,20.3-.56,24.2-9.5,3.11-7.13,1.33-13.2,6.78-20.29C694.44,130,711.36,122.37,727.41,125.24Z"/><path class="cls-1" d="M879.26,96.09A19.39,19.39,0,0,1,889,97.23c5.46,2.42,8.45,8.19,12.12,12.91,7.73,10,20.89,16.31,33.21,13.57,8.28-1.84,15.17-7.31,22.36-11.79,14.77-9.21,32.49-14.67,49.67-11.92,18.28,2.93,33.94,14.68,47,27.78,21.27,21.29,38.21,47.9,43.49,77.53,1.67,9.38,2,19.73-3.23,27.7-7.71,11.84-24.26,13.88-38.28,12.12s-27.72-6.13-41.12-10.84c-26.09-9.17-55.72-16.82-76.09-36.64-22.26-21.66-37.6-47.55-65.91-62.46-4.83-2.54-9.87-4.85-14-8.42C840.68,111.61,864.09,97.58,879.26,96.09Z"/><path class="cls-1" d="M1048.58,78.25c-1.65,13,3.51,26.89,13.81,35,5.24,4.15,11.95,6.82,18.59,6s13-5.56,14.4-12.09c1.87-8.57-4.5-16.49-7.22-24.83-3.19-9.74-1.45-20.83-6-30C1071,29.8,1050,67.07,1048.58,78.25Z"/><path class="cls-1" d="M584.76,291c6.19,6.62,14.22,11.22,22.44,15,10,4.64,20.74,8.32,31.74,8,7.28-.21,14.38-2.17,21.39-4.11l36.6-10.13c8-2.2,16.77-5.06,20.63-12.36a6.79,6.79,0,0,0,.89-4.72,7,7,0,0,0-2.23-3.26c-6.5-6-16.22-6.54-25-6-14.49.92-28.78,4-43.27,4.85s-29.71-.81-42-8.53c-7.69-4.84-19.37-14.32-28-5C570.9,272.37,579.13,285,584.76,291Z"/><path class="cls-1" d="M767.08,37c-5.91,9.07-7.51,20.45-6.28,31.2s5.11,21,9.46,30.94c4.51,10.26,10.94,21.41,21.89,23.8,7.74,1.68,15.77-1.64,22.19-6.29s11.79-10.61,18.17-15.32c5.15-3.8,11-6.86,15-11.92a22,22,0,0,0,4.41-15.63c-1-9.6-8.16-17.27-12.34-26-6.48-13.49-11.08-33.9-29.75-34.73C795,12.45,774.87,25.08,767.08,37Z"/><path class="cls-1" d="M258.73,379.08c9.78-4.47,20.48-12.1,19.86-22.83a21.51,21.51,0,0,0-3.8-10.2c-11-17-32.57-22.74-50.36-32.35-9.75-5.26-19.12-12.12-30.1-13.54-17.89-2.33-33.9,10.12-50.85,16.3-6.55,2.39-14,4.25-18,10-5.58,8-1.27,19.56,6.16,25.83s17.15,8.95,26,13a129.27,129.27,0,0,1,26.65,16.93c4.92,3.94,9,7.94,15.28,9.52C218.32,396.4,242,386.73,258.73,379.08Z"/><path class="cls-1" d="M497.71,235a52.89,52.89,0,0,0-79.32,33.86c-4.46,20.58,3.56,42.32-.83,62.92-2.52,11.83-9,22.39-15.29,32.69S389.5,385.31,387,397.14s-.4,25.37,8.39,33.67c6.58,6.23,16,8.7,25.06,8.72,17.62.06,34.16-8.13,49.26-17.21s29.82-19.38,46.72-24.35c12.65-3.72,26.32-4.38,38.07-10.35,15.26-7.76,25.25-24,27.82-40.88,3.65-24.07-6.29-61.45-30.58-72.25-9.33-4.15-17.81-3.77-25.6-11.43C516.47,253.57,509.53,242.23,497.71,235Z"/><path class="cls-1" d="M1779.51,768.92c-31.1-15.27-71.78-7.47-90.85,17.43a47.43,47.43,0,0,0-8.24,16.43c-5.57,20.58,4.45,42.32-1,62.92-3.15,11.83-11.24,22.39-19.1,32.69s-16,20.84-19.07,32.67-.5,25.37,10.48,33.67c8.22,6.23,20,8.7,31.3,8.72,22,.06,42.68-8.13,61.54-17.21s37.25-19.38,58.36-24.35c15.81-3.72,32.88-4.38,47.56-10.35,19.06-7.76,31.54-24,34.75-40.88,4.56-24.07-7.85-61.45-38.2-72.25-11.65-4.15-22.25-3.77-32-11.43C1802.94,787.49,1794.27,776.15,1779.51,768.92Z"/><path class="cls-1" d="M570.3,935.64a52.86,52.86,0,0,0-79-34.64c-18.06,10.83-28.42,31.57-46.44,42.47-10.34,6.26-22.45,8.79-34.3,11.23s-23.95,5-34.3,11.24S357.51,983,357.48,995.1c0,9.06,4.61,17.62,10.8,24.24,12,12.88,29.31,19.34,46.27,24.13s34.54,8.47,49.73,17.39c11.37,6.68,21.21,16.19,33.61,20.66,16.1,5.82,34.74,2,48.84-7.71,20-13.81,40.49-46.64,31.73-71.75-3.36-9.63-9.44-15.56-9.19-26.48C569.58,962.06,573.1,949.23,570.3,935.64Z"/><path class="cls-1" d="M362.2,381.34c-1.45-5.94-4.82-11.24-8.62-16-5.35-6.75-12.07-13-20.44-15-11.21-2.71-22.95,2.76-31.62,10.36S286.24,378,278.06,386.1c-9.7,9.65-21.47,16.95-33.56,23.35-8.76,4.64-19,10.58-19.66,20.46-.47,6.84,4.18,13.14,9.83,17,12,8.28,27.88,8.1,42.32,6,20.13-3,45.59-8.28,61.86-21.49C351.61,421,366.19,397.8,362.2,381.34Z"/><path class="cls-1" d="M400.93,903.08c6,1.23,12.22.43,18.17-1,8.39-2,16.89-5.38,22.29-12.09,7.23-9,7.27-21.94,4.09-33s-9.12-21.17-13-32c-4.59-12.88-6.19-26.64-6.83-40.31-.46-9.89-1.49-21.67-10.14-26.49-6-3.35-13.67-1.82-19.59,1.63-12.62,7.35-19.2,21.78-23.42,35.75-5.89,19.48-11.93,44.77-6.91,65.11C369.54,876.61,384.33,899.69,400.93,903.08Z"/><path class="cls-1" d="M345.87,475.26c-4.77,3.59-7.32,9.62-7.64,15.58-.86,16.24,12.5,29.13,21.25,42.84,11.1,17.41,15.3,38.32,17.25,58.88.86,9.08,1.41,18.5,5.65,26.58s13.44,14.4,22.26,12.1c4.39-1.14,8-4.18,11.3-7.3,17.3-16.4,30-37.37,48.14-52.78,12.3-10.43,26.77-18,39.25-28.2s23.33-24.15,24.16-40.25a22.72,22.72,0,0,0-2.25-12c-3.64-6.7-11.48-9.89-18.92-11.55-29.11-6.47-58.52,2.67-87.54,5-12.31,1-26.3,1.78-37.73-3.56C370.22,475.48,357.59,466.42,345.87,475.26Z"/><path class="cls-1" d="M101.08,403.72c17.69-16,44.69-20.75,66.78-11.83s38.2,31.12,39.84,54.89c.31,4.53.1,9.26-1.88,13.35-3.52,7.27-11.8,11-19.74,12.47-12.54,2.38-25.44.75-38.2.87s-26.33,2.39-35.78,11c-4.3,3.91-7.5,8.92-11.93,12.68s-10.89,6.12-16.06,3.47c-15.86-8.15-11.43-34.61-8.49-47.9C79.63,434.52,87,416.44,101.08,403.72Z"/><path class="cls-1" d="M488.08,780.72c17.69-16,44.69-20.75,66.78-11.83s38.2,31.12,39.84,54.89c.31,4.53.1,9.26-1.88,13.35-3.52,7.27-11.8,11-19.74,12.47-12.54,2.38-25.44.75-38.2.87s-26.33,2.39-35.78,11c-4.3,3.91-7.5,8.92-11.93,12.68s-10.89,6.12-16.06,3.47c-15.86-8.15-11.43-34.61-8.49-47.9C466.63,811.52,474,793.44,488.08,780.72Z"/><path class="cls-1" d="M199.32,497.06c-12.89-1.12-25.62-4.15-38.56-4.24-20.58-.16-40.92,7.28-57.45,19.54s-29.38,29.15-38.14,47.77c-2.91,6.17-5.42,12.69-5.75,19.51s1.8,14,6.92,18.54c7.26,6.4,18.17,5.85,27.74,4.38,24.77-3.82,48.88-11.39,73.75-14.49,40-5,81.6,1.56,120-10.58,11.47-3.63,22.63-9,31.13-17.55s14-20.47,12.93-32.44c-1.6-17.19-16.51-30.79-32.92-36.15-14.61-4.77-36.11-6.78-50.81-1.77C231.72,495.17,217.1,498.6,199.32,497.06Z"/><path class="cls-1" d="M335.09,315.82c7.62,1.81,15.93,1.67,23-1.74s12.57-10.46,12.9-18.28a12,12,0,0,0-2-7.61c-2.12-2.88-5.78-4.2-9.32-4.79-10.1-1.71-31-.3-38.25,8.71C312.92,302.64,325.06,313.44,335.09,315.82Z"/><path class="cls-1" d="M143.66,612.9c-12,.58-23.52,1.46-33.92,8.78C101.61,627.4,95.9,635.9,91,644.57a197.92,197.92,0,0,0-25,104c.37,9.23,1.67,19.11,7.87,25.95,5.11,5.64,12.94,8.31,20.55,8.35s15.06-2.29,22-5.36C142.5,766,162.74,744.42,187.32,730c23.8-14,51-20.86,76.76-30.65s51.59-23.61,66.56-46.79c2.78-4.3,5.21-9.17,4.86-14.28-1.13-16.37-22.18-21.49-35.22-23.24-33.22-4.46-66.82-5.25-100.29-4.49-16.79.38-33.56,1.16-50.33,2.05Z"/><path class="cls-1" d="M526.47,560c-10.36-2.35-22.4-1.74-30,5.65-8.62,8.34-8.63,21.8-10.71,33.61-3.58,20.28-16,39.7-34.86,48-14.46,6.36-31.08,5.79-46,11A62.71,62.71,0,0,0,372,685.07c-3.92,6.59-6.64,14.34-5.21,21.87,2,10.54,11.47,17.93,20.93,23C416,745.17,450,748.36,481.53,742.19s60.94-21.25,86.76-40.46c8.73-6.5,17.28-13.69,22.82-23.06s7.65-21.37,3.06-31.24c-7.75-16.65-30.91-21.72-38.49-38.45-4.42-9.75-.2-19.59-2.89-29.13C549.68,568.84,536.69,562.29,526.47,560Z"/><path class="cls-1" d="M176.06,793.6c6.09-.63,12.37-3,16.05-8.12,2-2.75,2.23-5.73,3.39-8.85a22,22,0,0,1,5.47-8.58c5.87-5.45,14.95-6.25,22.6-3.9,6,1.85,11.33,5.36,16.22,9.22,3.93,3.1,10,8.86,6.55,14.39-1.68,2.66-5.1,3.59-8.24,3.92-8.33.87-16.95-1-25,1.22-9.75,2.63-17.12,10.65-22.56,19.15s-9.58,17.89-16,25.73S158.78,852,148.7,851.21c-18.17-1.35-26.47-23.69-18.77-38.49a37.39,37.39,0,0,1,16.16-15.91,34.72,34.72,0,0,1,11.21-3.47c4.53-.58,9.09.23,13.64.41A36.46,36.46,0,0,0,176.06,793.6Z"/><path class="cls-1" d="M230.41,831.24c11.85,2.12,22.28,9,31.74,16.45,20.43,16.06,39.34,36.09,64.5,42.56,12.73,3.27,27.55,3.41,36.5,13,6.76,7.25,8.08,18,8.23,27.86.12,8.11-.35,16.43-3.49,23.91-3.57,8.52-10.32,15.31-17.58,21-9.41,7.41-20.1,13.47-31.78,16.13s-24.44,1.68-34.89-4.16c-16.08-9-24.33-27.54-38.72-39-13.83-11-32.33-14.63-50-14.09s-35,4.82-52.38,8c-12.68,2.28-25.88,3.94-38.29.51S80.36,930.28,78.5,917.54C76.07,901,90.7,886,106.71,881s33.2-2.76,50-2.48c8.25.14,20.3-.56,24.2-9.5,3.11-7.13,1.33-13.2,6.78-20.29C197.44,836,214.36,828.37,230.41,831.24Z"/><path class="cls-1" d="M87.76,997c6.19,6.62,14.22,11.22,22.44,15,10,4.64,20.74,8.32,31.74,8,7.28-.21,14.38-2.17,21.39-4.11l36.6-10.13c8-2.2,16.77-5.06,20.63-12.36a6.79,6.79,0,0,0,.89-4.72,7,7,0,0,0-2.23-3.26c-6.5-6-16.22-6.54-25-6-14.49.92-28.78,4-43.27,4.85s-29.71-.81-42-8.53c-7.69-4.84-19.37-14.32-28-5C73.9,978.37,82.13,991,87.76,997Z"/><path class="cls-1" d="M576.24,527.3c2.08-8.81,1.48-18,.11-27-1.65-10.89-4.52-21.88-10.88-30.87-4.2-5.95-9.75-10.78-15.25-15.55L521.54,429c-6.23-5.41-13.49-11.17-21.71-10.35a5.71,5.71,0,0,0-5.9,5.53c-1.37,8.71,3.52,17.12,8.85,24.15,8.78,11.57,19.26,21.76,28,33.38s15.75,25.19,16.11,39.71c.22,9.08-1.22,24.05,11.28,26.1C568.34,549.17,574.34,535.32,576.24,527.3Z"/><path class="cls-1" d="M270.08,743c-5.91,9.07-7.51,20.45-6.28,31.2s5.11,21,9.46,30.94c4.51,10.26,10.94,21.41,21.89,23.8,7.74,1.68,15.77-1.64,22.19-6.29s11.79-10.61,18.17-15.32c5.15-3.8,11-6.86,14.95-11.92a22,22,0,0,0,4.41-15.63c-1-9.6-8.16-17.27-12.34-26-6.48-13.49-11.08-33.9-29.75-34.73C298,718.45,277.87,731.08,270.08,743Z"/><path class="cls-1" d="M474,185.31c-2.54,10.44-3.15,23.57,5.66,29.72A21.35,21.35,0,0,0,490,218.35c20.13,1.84,38-11.53,56.55-19.57,10.17-4.41,21.35-7.53,29.27-15.28,12.89-12.63,13-32.9,18.62-50.05,2.17-6.62,5.3-13.6,3.29-20.27-2.81-9.32-14.59-13.1-24.11-11.14s-17.62,8-26.25,12.39a129.34,129.34,0,0,1-29.78,10.47c-6.14,1.43-11.81,2.17-16.93,6.13C485.38,142.84,478.37,167.4,474,185.31Z"/><path class="cls-1" d="M237,303.36a52.88,52.88,0,0,0,79.32-33.85c4.46-20.58-3.56-42.33.83-62.92,2.52-11.83,9-22.39,15.29-32.7S345.23,153,347.75,141.2s.4-25.37-8.39-33.68c-6.58-6.22-16-8.69-25.06-8.72-17.62,0-34.16,8.14-49.26,17.22s-29.82,19.37-46.72,24.34c-12.65,3.72-26.32,4.38-38.07,10.36C165,158.48,155,174.67,152.43,191.6c-3.65,24.07,6.29,61.44,30.58,72.25,9.33,4.14,17.81,3.77,25.6,11.43C218.26,284.76,225.2,296.11,237,303.36Z"/><path class="cls-1" d="M364.53,146c1.45,5.94,4.82,11.23,8.62,16,5.35,6.75,12.07,13,20.44,15,11.21,2.71,23-2.77,31.62-10.36s15.28-17.28,23.46-25.41c9.7-9.64,21.47-17,33.56-23.35,8.76-4.63,19-10.57,19.65-20.45.48-6.85-4.17-13.14-9.82-17-12-8.28-27.88-8.09-42.32-6-20.13,3-45.59,8.28-61.86,21.48C375.12,106.32,360.54,129.54,364.53,146Z"/><path class="cls-1" d="M373.86,76.08c4.77-3.6,7.32-9.62,7.64-15.59.86-16.24-12.5-29.12-21.25-42.83C349.15.25,345-20.67,343-41.22c-.86-9.08-1.41-18.51-5.65-26.58s-13.44-14.4-22.26-12.1c-4.39,1.14-8,4.18-11.3,7.3-17.3,16.4-30,37.36-48.14,52.78-12.3,10.42-26.77,18-39.26,28.2s-23.32,24.15-24.15,40.24a22.72,22.72,0,0,0,2.25,12c3.64,6.7,11.48,9.9,18.92,11.55,29.11,6.47,58.52-2.66,87.54-5,12.31-1,26.3-1.77,37.73,3.57C349.51,75.86,362.14,84.91,373.86,76.08Z"/><path class="cls-1" d="M470.6,54.28c8,1.12,16,4.14,24.08,4.24,12.86.16,25.56-7.29,35.89-19.54S548.91,9.83,554.39-8.79A78,78,0,0,0,558-28.3c.21-6.82-1.12-14-4.32-18.54-4.54-6.4-11.36-5.86-17.33-4.38-15.47,3.82-30.53,11.39-46.07,14.49-25,5-51-1.57-74.95,10.58A47.61,47.61,0,0,0,395.87-8.61a57.16,57.16,0,0,0-8.08,32.45C388.79,41,398.1,54.63,408.35,60c9.13,4.77,22.56,6.77,31.74,1.77C450.36,56.16,459.49,52.73,470.6,54.28Z"/><path class="cls-1" d="M384.64,235.51c-7.62-1.81-15.93-1.67-23,1.75s-12.57,10.45-12.9,18.28a12,12,0,0,0,2,7.6c2.12,2.89,5.78,4.2,9.32,4.8,10.1,1.71,31,.29,38.25-8.72C406.81,248.7,394.67,237.9,384.64,235.51Z"/><path class="cls-1" d="M143.41-7.54A59,59,0,0,0,130.82-21a29.25,29.25,0,0,0-8.21-4.38c-2.41-.79-5.19-2-7.61-.62a6.13,6.13,0,0,0-2.61,3.84c-2,7.66.79,15.59,3.47,22.71,2.92,7.73,6.87,15,9.5,22.88,2.15,6.42,3.43,13.11,5.62,19.52s5.42,12.69,10.66,17,12.8,6.21,19,3.44C182.82,53.46,151.63,4.07,143.41-7.54Z"/><path class="cls-1" d="M1727,798.36c10.62.21,22.29-2.82,28.28-11.6,6.76-9.91,4-23.1,3.7-35.09-.59-20.58,7.66-42.11,24.44-54,12.88-9.15,29.27-12,42.83-20a62.77,62.77,0,0,0,26.8-33c2.51-7.24,3.61-15.38.69-22.47-4.09-9.92-14.87-15.25-25.15-18.31-30.84-9.17-64.71-5.45-94.39,7S1678.83,644,1657.43,668c-7.24,8.13-14.16,16.89-17.69,27.19s-3.18,22.47,3.31,31.21c11,14.74,34.66,15,45.46,29.88,6.3,8.66,4.16,19.15,8.72,28C1702.5,794.37,1716.54,798.15,1727,798.36Z"/><path class="cls-1" d="M169.21,134.07a32.5,32.5,0,0,0,14.13-24.82,20.62,20.62,0,0,0-1.34-9.2,15.15,15.15,0,0,0-26.69-2.27c-1.83,2.85-2.68,6.29-4.75,9-2.56,3.32-6.56,5.1-10.56,6.46s-8.1,2.48-11.48,5S122.69,125,123.76,129c2,7.52,13.81,8.23,20.14,9.55C152.64,140.38,161.7,139.11,169.21,134.07Z"/><path class="cls-1" d="M1137.15,341.09c1.65-13-3.51-26.9-13.81-35-5.24-4.15-11.95-6.82-18.59-6s-13,5.55-14.4,12.09c-1.87,8.56,4.5,16.49,7.22,24.82,3.19,9.74,1.45,20.83,6,30C1114.75,389.53,1135.74,352.26,1137.15,341.09Z"/><path class="cls-1" d="M1317,77.56c9.78-4.46,20.48-12.09,19.86-22.82a21.26,21.26,0,0,0-3.8-10.2c-11-17-32.57-22.74-50.36-32.35C1273,6.93,1263.62.07,1252.63-1.36c-17.89-2.32-33.9,10.13-50.85,16.31-6.55,2.39-14,4.25-18,10-5.59,8-1.28,19.56,6.16,25.83s17.14,8.95,26,13a129.27,129.27,0,0,1,26.65,16.93c4.92,3.94,9,7.94,15.29,9.52C1276.62,94.89,1300.26,85.22,1317,77.56Z"/><path class="cls-1" d="M1541-53.54a53.77,53.77,0,0,0-48.4-3.56,53.78,53.78,0,0,0-30.92,37.42c-4.46,20.58,3.56,42.32-.83,62.92-2.52,11.83-9,22.39-15.29,32.69s-12.77,20.87-15.29,32.7-.4,25.37,8.39,33.67c6.58,6.22,16,8.69,25.06,8.72,17.62,0,34.16-8.13,49.26-17.21s29.82-19.38,46.72-24.35c12.66-3.72,26.32-4.38,38.08-10.35,15.25-7.76,25.24-24,27.81-40.88C1629.24,34.16,1619.3-3.22,1595-14c-9.32-4.15-17.81-3.77-25.6-11.43C1559.78-34.94,1552.83-46.29,1541-53.54Z"/><path class="cls-1" d="M1242,804.46a52.89,52.89,0,0,0-79.32,33.86c-4.46,20.58,3.56,42.32-.83,62.92-2.52,11.83-9,22.39-15.29,32.69s-12.77,20.87-15.29,32.7-.4,25.37,8.39,33.67c6.58,6.22,16,8.69,25.06,8.72,17.62.05,34.16-8.13,49.26-17.21s29.82-19.38,46.72-24.35c12.66-3.72,26.32-4.38,38.08-10.35,15.25-7.76,25.24-24,27.81-40.88,3.65-24.07-6.29-61.45-30.58-72.25-9.32-4.15-17.81-3.77-25.6-11.43C1260.78,823.06,1253.83,811.71,1242,804.46Z"/><path class="cls-1" d="M1420.5,79.83c-1.45-5.94-4.82-11.24-8.62-16-5.35-6.75-12.06-13-20.44-15-11.21-2.71-22.94,2.76-31.62,10.36s-15.28,17.27-23.46,25.4c-9.7,9.64-21.47,17-33.56,23.35-8.75,4.64-19,10.57-19.65,20.46-.48,6.84,4.17,13.14,9.82,17,12,8.28,27.88,8.1,42.32,6,20.14-3,45.59-8.27,61.86-21.48C1409.91,119.51,1424.49,96.29,1420.5,79.83Z"/><path class="cls-1" d="M1404.17,173.75c-4.77,3.59-7.32,9.62-7.64,15.58-.86,16.24,12.5,29.12,21.25,42.83,11.1,17.41,15.3,38.33,17.25,58.89.86,9.08,1.41,18.5,5.65,26.57s13.44,14.41,22.26,12.11c4.39-1.14,8-4.18,11.3-7.3,17.3-16.4,30-37.37,48.14-52.79,12.3-10.42,26.77-18,39.26-28.19s23.33-24.15,24.15-40.25a22.72,22.72,0,0,0-2.25-12c-3.64-6.7-11.48-9.89-18.92-11.55-29.11-6.47-58.52,2.67-87.54,5-12.31,1-26.3,1.78-37.73-3.56C1428.52,174,1415.9,164.91,1404.17,173.75Z"/><path class="cls-1" d="M1159.38,102.21c17.69-16,44.69-20.75,66.78-11.83s38.2,31.12,39.84,54.89c.31,4.53.1,9.25-1.88,13.34-3.51,7.28-11.8,11-19.74,12.48-12.53,2.38-25.44.75-38.2.87s-26.33,2.38-35.78,11c-4.3,3.9-7.5,8.92-11.93,12.68s-10.89,6.12-16.06,3.46c-15.86-8.14-11.43-34.6-8.49-47.89C1137.93,133,1145.3,114.93,1159.38,102.21Z"/><path class="cls-1" d="M1257.62,195.55c-12.89-1.12-25.62-4.15-38.56-4.25-20.58-.15-40.91,7.29-57.45,19.55s-29.38,29.14-38.14,47.77c-2.91,6.17-5.42,12.69-5.75,19.51s1.8,14,6.92,18.53c7.27,6.41,18.17,5.86,27.75,4.39,24.76-3.82,48.87-11.39,73.74-14.5,40-5,81.6,1.57,120-10.57,11.47-3.63,22.63-9,31.13-17.55s14-20.47,12.93-32.44c-1.6-17.19-16.51-30.79-32.92-36.15-14.61-4.77-36.11-6.78-50.81-1.78C1290,193.66,1275.4,197.09,1257.62,195.55Z"/><path class="cls-1" d="M1393.39,14.31c7.62,1.81,15.93,1.67,23-1.74S1429,2.11,1429.3-5.71a12,12,0,0,0-2-7.61c-2.12-2.89-5.78-4.2-9.31-4.8-10.1-1.71-31-.29-38.26,8.72C1371.22,1.12,1383.36,11.92,1393.39,14.31Z"/><path class="cls-1" d="M1634.62,257.36a58.34,58.34,0,0,0,12.6,13.45,29.35,29.35,0,0,0,8.2,4.39c2.41.79,5.19,2,7.61.61a6.18,6.18,0,0,0,2.62-3.84c2-7.65-.8-15.59-3.48-22.71-2.91-7.73-6.87-15-9.5-22.88-2.15-6.42-3.43-13.11-5.62-19.51s-5.42-12.69-10.66-17-12.8-6.21-19-3.45C1595.21,196.37,1626.4,245.76,1634.62,257.36Z"/><path class="cls-1" d="M1202,311.39c-12,.58-23.52,1.46-33.92,8.78-8.13,5.72-13.84,14.22-18.69,22.89a197.92,197.92,0,0,0-25,104c.37,9.23,1.68,19.11,7.88,25.95,5.11,5.64,12.94,8.31,20.55,8.35s15-2.29,22-5.36c26.08-11.52,46.32-33.09,70.9-47.52,23.8-14,51-20.85,76.76-30.64s51.59-23.61,66.56-46.79c2.78-4.3,5.22-9.17,4.86-14.28-1.13-16.38-22.18-21.49-35.22-23.24-33.22-4.46-66.82-5.25-100.29-4.49-16.79.38-33.56,1.15-50.33,2Z"/><path class="cls-1" d="M1565,275.47c-10.62-.21-22.29,2.82-28.28,11.6-6.75,9.9-4,23.09-3.7,35.08.59,20.58-7.66,42.11-24.44,54-12.88,9.16-29.27,12-42.83,20.06a62.6,62.6,0,0,0-26.8,33c-2.51,7.23-3.61,15.38-.69,22.46,4.1,9.92,14.87,15.25,25.15,18.31,30.84,9.17,64.71,5.45,94.39-7s55.39-33.12,76.79-57.15c7.24-8.13,14.16-16.89,17.7-27.19s3.18-22.48-3.32-31.22c-11-14.74-34.66-15-45.46-29.88-6.3-8.65-4.16-19.14-8.72-27.94C1589.54,279.46,1575.49,275.67,1565,275.47Z"/><path class="cls-1" d="M1608.82,115.76a32.56,32.56,0,0,0-14.13,24.81,20.62,20.62,0,0,0,1.34,9.2,15.14,15.14,0,0,0,26.69,2.28c1.83-2.86,2.68-6.3,4.75-9,2.54-3.32,6.59-5.1,10.55-6.46s8.11-2.49,11.48-5,5.84-6.76,4.78-10.81c-2-7.53-13.82-8.24-20.15-9.55C1625.39,109.44,1616.33,110.72,1608.82,115.76Z"/><path class="cls-1" d="M1413.53,373.07c2.84,4.78,8.5,7.18,14,8.06a18.13,18.13,0,0,0,8.75-.35,20.17,20.17,0,0,0,7.34-5.07c4.17-4.08,8.05-9.48,7.11-15.24-.55-3.37-2.71-6.26-5.16-8.64-5.85-5.68-18.47-12.92-26.47-7.51C1411.58,349.39,1409.13,365.68,1413.53,373.07Z"/><path class="cls-1" d="M1234.36,492.08c6.09-.62,12.38-3,16.05-8.11,2-2.75,2.23-5.73,3.39-8.85a22,22,0,0,1,5.47-8.58c5.87-5.45,15-6.25,22.6-3.9,6,1.85,11.33,5.35,16.23,9.22,3.93,3.09,10,8.86,6.54,14.38-1.68,2.67-5.1,3.6-8.23,3.93-8.34.87-17-1-25.05,1.22-9.76,2.62-17.13,10.65-22.57,19.15s-9.58,17.89-15.94,25.73-15.77,14.18-25.84,13.43c-18.18-1.35-26.48-23.69-18.78-38.49a37.36,37.36,0,0,1,16.17-15.91,34.74,34.74,0,0,1,11.2-3.47c4.54-.58,9.09.23,13.65.41A34.87,34.87,0,0,0,1234.36,492.08Z"/><path class="cls-1" d="M1288.71,529.73c11.85,2.12,22.28,9,31.74,16.45,20.43,16.06,39.34,36.09,64.51,42.56,12.72,3.27,27.54,3.41,36.49,13,6.76,7.26,8.08,18,8.23,27.87.12,8.11-.35,16.43-3.48,23.91-3.57,8.52-10.33,15.31-17.59,21-9.41,7.41-20.1,13.47-31.78,16.13s-24.43,1.68-34.89-4.17c-16.08-9-24.33-27.53-38.72-39-13.83-11-32.33-14.63-50-14.09s-35,4.81-52.39,8c-12.67,2.29-25.88,4-38.29.52s-23.89-13.13-25.75-25.87c-2.41-16.58,12.21-31.56,28.22-36.5s33.21-2.77,50-2.48c8.25.14,20.31-.56,24.21-9.5,3.11-7.13,1.32-13.2,6.77-20.29C1255.74,534.51,1272.66,526.86,1288.71,529.73Z"/><path class="cls-1" d="M1440.56,500.58a19.45,19.45,0,0,1,9.76,1.14c5.46,2.42,8.45,8.18,12.11,12.9,7.73,10,20.89,16.32,33.21,13.58,8.28-1.84,15.17-7.31,22.36-11.8,14.77-9.2,32.49-14.66,49.67-11.91,18.28,2.93,33.94,14.68,47,27.77,21.28,21.3,38.21,47.91,43.49,77.54,1.67,9.38,2,19.72-3.22,27.7-7.72,11.84-24.27,13.88-38.29,12.12s-27.72-6.13-41.12-10.84c-26.09-9.17-55.72-16.82-76.09-36.64-22.26-21.66-37.6-47.55-65.9-62.46-4.84-2.55-9.88-4.85-14-8.42C1402,516.1,1425.39,502.07,1440.56,500.58Z"/><path class="cls-1" d="M1609.88,482.73c-1.65,13,3.52,26.9,13.81,35,5.24,4.15,12,6.82,18.59,6s13-5.56,14.4-12.09c1.87-8.57-4.5-16.5-7.22-24.83-3.19-9.74-1.45-20.83-6-30C1632.29,434.29,1611.29,471.56,1609.88,482.73Z"/><path class="cls-1" d="M934.77,230.69c1.49-13-3.82-26.86-14.2-34.88-5.3-4.09-12-6.69-18.66-5.83s-12.92,5.7-14.27,12.25c-1.77,8.59,4.68,16.44,7.5,24.74,3.3,9.71,1.68,20.82,6.33,30C912.9,279.38,933.48,241.88,934.77,230.69Z"/><path class="cls-1" d="M1146.06,695.52c6.19,6.62,14.23,11.22,22.44,15,10,4.64,20.74,8.32,31.75,8,7.27-.21,14.37-2.17,21.39-4.11l36.59-10.13c8-2.2,16.77-5.06,20.63-12.36a6.74,6.74,0,0,0,.9-4.72,7.08,7.08,0,0,0-2.24-3.27c-6.5-6-16.22-6.53-25-6-14.49.92-28.78,4-43.27,4.85s-29.71-.81-42-8.54c-7.69-4.83-19.37-14.31-28-5C1132.21,676.86,1140.43,689.51,1146.06,695.52Z"/><path class="cls-1" d="M1477.33,671.34c13.8,1.09,26.92,6.24,39.73,11.49s25.76,10.7,39.5,12.44c15.27,1.93,31.27-.75,45.78,4.35,6.2,2.18,12.09,5.93,15.52,11.54s3.93,13.26.12,18.61-11.13,7.42-17.79,8.49c-15.9,2.55-32.09,2.48-48.14,3.83-31.25,2.65-62,10.73-93.37,11-12.29.1-26.49-2.13-32.79-12.69-7-11.78-1.68-33.2,4.77-44.69C1440.52,678.1,1457.27,669.76,1477.33,671.34Z"/><path class="cls-1" d="M1328.39,441.52c-5.91,9.07-7.52,20.45-6.29,31.2s5.11,21,9.47,30.94c4.5,10.26,10.93,21.41,21.88,23.79,7.74,1.69,15.77-1.64,22.19-6.28s11.79-10.61,18.17-15.32c5.15-3.8,11-6.86,15-11.92a22,22,0,0,0,4.41-15.64c-1-9.6-8.15-17.26-12.34-26-6.47-13.48-11.07-33.89-29.74-34.72C1356.27,416.94,1336.17,429.57,1328.39,441.52Z"/><path class="cls-1" d="M-30.72,59C-40.5,63.49-51.2,71.12-50.58,81.85a21.26,21.26,0,0,0,3.8,10.2c11,17,32.57,22.74,50.36,32.35,9.74,5.26,19.11,12.12,30.1,13.55,17.89,2.32,33.9-10.13,50.85-16.31,6.55-2.39,14-4.25,18-10,5.59-8,1.28-19.56-6.16-25.83s-17.14-9-26-13A129.61,129.61,0,0,1,43.7,55.93c-4.92-4-9-8-15.29-9.52C9.69,41.7-13.95,51.38-30.72,59Z"/><path class="cls-1" d="M-35.7,538.13a53.77,53.77,0,0,0,48.4,3.56,53.79,53.79,0,0,0,30.92-37.41c4.46-20.58-3.56-42.33.83-62.93,2.52-11.83,9-22.39,15.29-32.69S72.51,387.79,75,376s.4-25.38-8.39-33.68c-6.58-6.22-16-8.69-25.06-8.72C24,333.52,7.42,341.7-7.68,350.78S-37.5,370.16-54.4,375.13c-12.66,3.72-26.32,4.38-38.08,10.36-15.25,7.75-25.24,23.95-27.81,40.87-3.65,24.07,6.29,61.45,30.58,72.25,9.32,4.15,17.81,3.78,25.6,11.43C-54.47,519.53-47.52,530.88-35.7,538.13Z"/><path class="cls-1" d="M66.18,50.05c6.11.29,12.14-1.46,17.81-3.76,8-3.23,15.85-7.92,20.15-15.39,5.76-10,3.8-22.8-1-33.26S90.81-21.87,85.31-32c-6.53-12-10.23-25.37-13-38.77-2-9.71-4.81-21.18-14.11-24.62-6.43-2.38-13.78.32-19.1,4.64-11.3,9.2-15.58,24.47-17.6,38.92-2.8,20.16-4.87,46.08,3.23,65.41C31.08,28.74,49.26,49.26,66.18,50.05Z"/><path class="cls-1" d="M146.14,303.85c4.77-3.6,7.32-9.62,7.64-15.59.86-16.24-12.5-29.12-21.25-42.83-11.1-17.41-15.3-38.33-17.25-58.89-.86-9.08-1.41-18.5-5.65-26.57s-13.44-14.41-22.26-12.11c-4.39,1.14-8,4.18-11.3,7.3-17.3,16.4-30,37.37-48.14,52.79-12.3,10.42-26.77,18-39.26,28.19s-23.33,24.15-24.15,40.25a22.72,22.72,0,0,0,2.25,12c3.64,6.7,11.48,9.9,18.92,11.55,29.11,6.47,58.52-2.67,87.54-4.95,12.31-1,26.3-1.78,37.73,3.56C121.79,303.62,134.41,312.68,146.14,303.85Z"/><path class="cls-1" d="M32.93,987.38c-17.69,16-44.69,20.75-66.78,11.83S-72,968.09-73.69,944.32c-.31-4.53-.1-9.25,1.88-13.34,3.51-7.28,11.8-11,19.74-12.48,12.53-2.38,25.44-.75,38.2-.87s26.33-2.38,35.78-11c4.3-3.91,7.5-8.93,11.93-12.69s10.89-6.12,16.06-3.46c15.86,8.14,11.43,34.6,8.49,47.89C54.38,956.59,47,974.67,32.93,987.38Z"/><path class="cls-1" d="M-38.55,712.58C-40.16,725.42-43.67,738-44.26,751c-.94,20.56,5.72,41.16,17.34,58.15s28,30.46,46.28,39.93c6.06,3.14,12.48,5.9,19.28,6.49s14.08-1.26,18.79-6.21c6.67-7,6.54-17.94,5.43-27.56-2.87-24.89-9.52-49.27-11.67-74.24-3.46-40.13,4.67-81.48-6-120.32-3.19-11.6-8.16-23-16.35-31.77S8.92,580.61-3.09,581.26c-17.23.94-31.39,15.33-37.37,31.52-5.33,14.42-8.15,35.83-3.71,50.71C-39.2,680.13-36.33,694.87-38.55,712.58Z"/><path class="cls-1" d="M68.92,1004.28c-7.62-1.81-15.93-1.67-23,1.74S33.37,1016.48,33,1024.31a12,12,0,0,0,2,7.6c2.12,2.89,5.78,4.2,9.31,4.8,10.1,1.71,31,.29,38.26-8.72C91.09,1017.47,79,1006.67,68.92,1004.28Z"/><path class="cls-1" d="M281.69,1003.23a58.34,58.34,0,0,0-12.6-13.45,29.35,29.35,0,0,0-8.2-4.39c-2.41-.78-5.19-2-7.61-.61a6.18,6.18,0,0,0-2.62,3.84c-2,7.66.8,15.59,3.48,22.71,2.91,7.73,6.87,15,9.5,22.88,2.15,6.42,3.43,13.11,5.62,19.51s5.42,12.69,10.66,17,12.8,6.21,19,3.45C321.1,1064.22,289.91,1014.84,281.69,1003.23Z"/><path class="cls-1" d="M1593.35,1164.2c12-.58,23.52-1.46,33.92-8.78,8.13-5.72,13.84-14.22,18.69-22.89a197.92,197.92,0,0,0,25-104c-.37-9.22-1.68-19.11-7.88-25.95-5.11-5.64-12.94-8.31-20.55-8.35s-15,2.29-22,5.36c-26.08,11.52-46.32,33.09-70.9,47.52-23.8,14-51,20.85-76.76,30.64s-51.59,23.61-66.56,46.79c-2.78,4.3-5.22,9.17-4.86,14.28,1.13,16.38,22.18,21.49,35.22,23.24,33.22,4.46,66.82,5.25,100.29,4.49,16.79-.38,33.56-1.15,50.33-2Z"/><path class="cls-1" d="M1230.3,1200.12c10.62.21,22.29-2.82,28.28-11.6,6.75-9.9,4-23.09,3.7-35.08-.59-20.58,7.66-42.11,24.44-54,12.88-9.15,29.27-12,42.83-20.06a62.67,62.67,0,0,0,26.8-33c2.51-7.24,3.61-15.39.69-22.47-4.1-9.92-14.87-15.25-25.15-18.31-30.84-9.17-64.71-5.45-94.39,7s-55.39,33.12-76.79,57.15c-7.24,8.13-14.16,16.9-17.7,27.19s-3.18,22.48,3.32,31.22c11,14.74,34.66,15,45.46,29.88,6.3,8.66,4.16,19.14,8.72,28C1205.77,1196.13,1219.82,1199.92,1230.3,1200.12Z"/><path class="cls-1" d="M946.49,966.83A32.57,32.57,0,0,0,960.62,942a20.62,20.62,0,0,0-1.34-9.2,15.14,15.14,0,0,0-26.69-2.28c-1.83,2.86-2.68,6.3-4.75,9-2.54,3.33-6.59,5.11-10.55,6.47s-8.11,2.48-11.48,5-5.81,6.75-4.81,10.8c2,7.52,13.82,8.23,20.15,9.54C929.92,973.15,939,971.88,946.49,966.83Z"/><path class="cls-1" d="M1154.78,743.52c-2.84-4.78-8.5-7.17-14-8.06a18.13,18.13,0,0,0-8.75.35,20.17,20.17,0,0,0-7.34,5.07c-4.17,4.08-8,9.48-7.11,15.24.55,3.37,2.71,6.26,5.16,8.64,5.85,5.68,18.47,12.92,26.47,7.51C1156.73,767.2,1159.18,750.91,1154.78,743.52Z"/><path class="cls-1" d="M1561,983.51c-6.09.63-12.38,3-16,8.11-2,2.75-2.23,5.73-3.39,8.86a22,22,0,0,1-5.47,8.57c-5.87,5.45-15,6.25-22.6,3.9-6-1.85-11.33-5.35-16.23-9.21-3.93-3.1-10-8.87-6.54-14.39,1.68-2.67,5.1-3.6,8.23-3.93,8.34-.87,17,1,25-1.22,9.76-2.62,17.13-10.64,22.57-19.15s9.58-17.89,15.94-25.73,15.77-14.18,25.84-13.43c18.18,1.35,26.48,23.69,18.78,38.49A37.44,37.44,0,0,1,1591,980.3a34.73,34.73,0,0,1-11.2,3.46c-4.54.58-9.09-.23-13.65-.41A36.32,36.32,0,0,0,1561,983.51Z"/><path class="cls-1" d="M1506.6,945.86c-11.85-2.12-22.28-9-31.74-16.45-20.43-16.06-39.34-36.09-64.51-42.56-12.72-3.27-27.54-3.4-36.49-13-6.76-7.26-8.08-18-8.23-27.87-.12-8.11.35-16.42,3.48-23.91,3.57-8.52,10.33-15.31,17.59-21,9.41-7.41,20.1-13.47,31.78-16.13s24.43-1.68,34.89,4.17c16.08,9,24.33,27.53,38.72,39,13.83,11,32.33,14.63,50,14.1s35-4.82,52.38-8c12.67-2.29,25.88-4,38.29-.52s23.89,13.13,25.75,25.87c2.41,16.58-12.21,31.56-28.22,36.51s-33.21,2.76-50,2.47c-8.25-.14-20.31.56-24.2,9.5-3.12,7.13-1.33,13.2-6.78,20.29C1539.57,941.09,1522.65,948.73,1506.6,945.86Z"/><path class="cls-1" d="M1389.43,931.86c1.65-13-3.52-26.9-13.81-35-5.24-4.15-11.95-6.82-18.59-6s-13,5.55-14.4,12.08c-1.87,8.57,4.5,16.5,7.22,24.83,3.19,9.74,1.45,20.83,6,30C1367,980.3,1388,943,1389.43,931.86Z"/><path class="cls-1" d="M1649.25,780.07c-6.19-6.62-14.23-11.22-22.44-15-10-4.65-20.74-8.33-31.75-8-7.27.21-14.37,2.17-21.39,4.11l-36.59,10.13c-8,2.2-16.77,5.07-20.63,12.37a6.71,6.71,0,0,0-.9,4.71,7.08,7.08,0,0,0,2.24,3.27c6.5,6,16.22,6.53,25,6,14.49-.92,28.78-4,43.27-4.84s29.71.8,42,8.53c7.69,4.83,19.37,14.31,28,5C1663.1,798.73,1654.88,786.08,1649.25,780.07Z"/><path class="cls-1" d="M1318,804.25c-13.8-1.09-26.92-6.24-39.73-11.49s-25.76-10.7-39.5-12.43c-15.27-1.94-31.27.74-45.78-4.36-6.2-2.18-12.09-5.93-15.52-11.54s-3.93-13.26-.12-18.61c3.92-5.5,11.13-7.42,17.79-8.49,15.9-2.55,32.09-2.47,48.14-3.83,31.25-2.65,62-10.73,93.37-11,12.29-.1,26.49,2.14,32.79,12.69,7,11.78,1.68,33.2-4.77,44.69C1354.79,797.5,1338,805.83,1318,804.25Z"/><path class="cls-1" d="M1466.92,1034.08c5.91-9.08,7.52-20.45,6.29-31.21s-5.11-21-9.47-30.94c-4.5-10.26-10.93-21.4-21.88-23.79-7.74-1.69-15.77,1.64-22.19,6.28s-11.79,10.61-18.17,15.32c-5.15,3.8-11,6.86-15,11.93a22,22,0,0,0-4.41,15.63c1,9.6,8.15,17.26,12.34,26,6.47,13.48,11.07,33.89,29.74,34.72C1439,1058.66,1459.14,1046,1466.92,1034.08Z"/></svg>